<?xml version="1.0" encoding="UTF-8" standalone="no"?>
<svg
   xmlns:dc="http://purl.org/dc/elements/1.1/"
   xmlns:cc="http://creativecommons.org/ns#"
   xmlns:rdf="http://www.w3.org/1999/02/22-rdf-syntax-ns#"
   xmlns:svg="http://www.w3.org/2000/svg"
   xmlns="http://www.w3.org/2000/svg"
   viewBox="0 0 226.772 68.032532"
   height="68.032532"
   width="226.772"
   xml:space="preserve"
   id="svg2"
   version="1.1"><metadata
     id="metadata8"><rdf:RDF><cc:Work
         rdf:about=""><dc:format>image/svg+xml</dc:format><dc:type
           rdf:resource="http://purl.org/dc/dcmitype/StillImage" /></cc:Work></rdf:RDF></metadata><defs
     id="defs6"><clipPath
       id="clipPath26"
       clipPathUnits="userSpaceOnUse"><path
         id="path24"
         d="M 0,51.024 H 170.079 V 0 H 0 Z" /></clipPath><linearGradient
       id="linearGradient86"
       spreadMethod="pad"
       gradientTransform="matrix(0,34.015625,34.015625,0,25.512207,8.5039063)"
       gradientUnits="userSpaceOnUse"
       y2="0"
       x2="1"
       y1="0"
       x1="0"><stop
         id="stop82"
         offset="0"
         style="stop-opacity:1;stop-color:#01579b" /><stop
         id="stop84"
         offset="1"
         style="stop-opacity:1;stop-color:#4dd0e1" /></linearGradient><linearGradient
       id="linearGradient108"
       spreadMethod="pad"
       gradientTransform="matrix(0,24.626953,24.626953,0,23.710937,13.199219)"
       gradientUnits="userSpaceOnUse"
       y2="0"
       x2="1"
       y1="0"
       x1="0"><stop
         id="stop102"
         offset="0"
         style="stop-opacity:1;stop-color:#ffffff" /><stop
         id="stop104"
         offset="0.26303688"
         style="stop-opacity:1;stop-color:#ffffff" /><stop
         id="stop106"
         offset="1"
         style="stop-opacity:1;stop-color:#c6c6c6" /></linearGradient><linearGradient
       id="linearGradient130"
       spreadMethod="pad"
       gradientTransform="matrix(0,17.796875,17.796875,0,24.206055,16.613281)"
       gradientUnits="userSpaceOnUse"
       y2="0"
       x2="1"
       y1="0"
       x1="0"><stop
         id="stop124"
         offset="0"
         style="stop-opacity:1;stop-color:#c6c6c6" /><stop
         id="stop126"
         offset="0.73696312"
         style="stop-opacity:1;stop-color:#ffffff" /><stop
         id="stop128"
         offset="1"
         style="stop-opacity:1;stop-color:#ffffff" /></linearGradient></defs><g
     transform="matrix(1.3333333,0,0,-1.3333333,0,68.032533)"
     id="g10"><g
       transform="translate(71.5752,32.5596)"
       id="g12"><path
         id="path14"
         style="fill:#01579b;fill-opacity:1;fill-rule:nonzero;stroke:none"
         d="M 0,0 2.053,5.762 4.004,0 Z M 4.531,9.96 H -0.426 L -6.187,-5.346 h 4.476 l 0.758,2.202 H 5.082 L 5.84,-5.346 h 4.475 z" /></g><g
       transform="translate(87.3486,36.0703)"
       id="g16"><path
         id="path18"
         style="fill:#01579b;fill-opacity:1;fill-rule:nonzero;stroke:none"
         d="m 0,0 6.472,-8.856 h 3.81 V 6.449 H 6.313 V -1.973 L 0.116,6.449 H -3.946 V -8.856 H 0 Z" /></g><g
       id="g20"><g
         clip-path="url(#clipPath26)"
         id="g22"><g
           transform="translate(60.0557,30.7891)"
           id="g28"><path
             id="path30"
             style="fill:#01579b;fill-opacity:1;fill-rule:nonzero;stroke:none"
             d="m 0,0 c -0.268,-0.287 -0.639,-0.432 -1.113,-0.432 h -3.97 v 3.144 h 3.97 C -0.639,2.712 -0.268,2.563 0,2.268 0.268,1.97 0.401,1.594 0.401,1.141 0.401,0.668 0.268,0.289 0,0 m -5.083,8.587 h 3.833 c 0.397,0 0.723,-0.126 0.975,-0.382 C -0.022,7.951 0.104,7.628 0.104,7.232 0.104,6.823 -0.022,6.492 -0.275,6.238 -0.527,5.983 -0.853,5.856 -1.25,5.856 H -5.083 Z M 3.58,3.148 C 3.021,3.867 2.331,4.289 1.503,4.412 2.253,4.58 2.876,4.971 3.373,5.59 3.872,6.209 4.119,6.975 4.119,7.879 4.119,8.545 3.951,9.172 3.615,9.761 3.277,10.349 2.773,10.825 2.1,11.187 1.427,11.551 0.607,11.73 -0.355,11.73 H -9.031 V -3.575 h 8.951 c 0.964,0 1.785,0.188 2.467,0.568 0.68,0.378 1.19,0.888 1.526,1.521 0.336,0.635 0.505,1.339 0.505,2.113 0,0.96 -0.279,1.8 -0.838,2.521" /></g><g
           transform="translate(121.0703,32.5596)"
           id="g32"><path
             id="path34"
             style="fill:#01579b;fill-opacity:1;fill-rule:nonzero;stroke:none"
             d="M 0,0 2.053,5.762 4.003,0 Z M 4.532,9.96 H -0.426 L -6.187,-5.346 h 4.476 l 0.758,2.202 H 5.082 L 5.84,-5.346 h 4.475 z" /></g><g
           transform="translate(114.6357,42.5195)"
           id="g36"><path
             id="path38"
             style="fill:#01579b;fill-opacity:1;fill-rule:nonzero;stroke:none"
             d="M 0,0 H -4.866 L -9.571,-6.288 V 0 h -3.948 v -15.306 h 3.948 v 4.474 l 1.032,1.285 4.017,-5.759 h 4.841 l -6.263,8.147 z" /></g><g
           transform="translate(56.1499,20.2822)"
           id="g40"><path
             id="path42"
             style="fill:#01579b;fill-opacity:1;fill-rule:nonzero;stroke:none"
             d="m 0,0 c 0.643,0.42 1.377,0.63 2.203,0.63 0.718,0 1.38,-0.214 1.985,-0.641 0.604,-0.429 1.035,-0.957 1.297,-1.584 L 8.88,0.011 C 8.284,1.114 7.442,2.017 6.356,2.719 5.271,3.423 3.885,3.774 2.203,3.774 c -1.56,0 -2.972,-0.332 -4.234,-0.998 -1.262,-0.665 -2.253,-1.597 -2.971,-2.799 -0.72,-1.202 -1.079,-2.575 -1.079,-4.119 0,-1.546 0.359,-2.92 1.079,-4.119 0.718,-1.2 1.709,-2.135 2.971,-2.8 1.262,-0.666 2.674,-0.999 4.234,-0.999 1.682,0 3.071,0.356 4.165,1.066 1.093,0.71 1.93,1.608 2.512,2.7 L 5.485,-6.688 C 5.223,-7.317 4.792,-7.845 4.188,-8.272 3.583,-8.702 2.921,-8.915 2.203,-8.915 c -0.826,0 -1.56,0.21 -2.203,0.631 -0.643,0.42 -1.148,0.993 -1.514,1.718 -0.368,0.725 -0.552,1.534 -0.552,2.424 0,0.89 0.184,1.698 0.552,2.423 C -1.148,-0.993 -0.643,-0.421 0,0" /></g><g
           transform="translate(75.5376,17.2969)"
           id="g44"><path
             id="path46"
             style="fill:#01579b;fill-opacity:1;fill-rule:nonzero;stroke:none"
             d="m 0,0 c -0.368,-0.343 -0.819,-0.515 -1.353,-0.515 h -3.122 v 3.878 h 3.122 C -0.819,3.363 -0.368,3.191 0,2.848 0.367,2.505 0.551,2.035 0.551,1.438 0.551,0.823 0.367,0.346 0,0 m 1.515,-3.176 c 0.825,0.289 1.541,0.822 2.144,1.594 0.605,0.773 0.907,1.77 0.907,2.995 0,0.964 -0.209,1.833 -0.63,2.604 C 3.514,4.789 2.903,5.398 2.099,5.842 1.297,6.285 0.343,6.507 -0.758,6.507 H -8.421 V -8.797 h 3.946 v 5.139 h 2.019 l 2.57,-5.139 h 4.521 z" /></g><g
           transform="translate(137.7705,13.8457)"
           id="g48"><path
             id="path50"
             style="fill:#01579b;fill-opacity:1;fill-rule:nonzero;stroke:none"
             d="M 0,0 2.052,5.761 4.004,0 Z M 4.53,9.958 H -0.426 L -6.188,-5.346 h 4.478 l 0.756,2.201 h 6.035 l 0.758,-2.201 h 4.474 z" /></g><g
           transform="translate(132.3682,23.8037)"
           id="g52"><path
             id="path54"
             style="fill:#01579b;fill-opacity:1;fill-rule:nonzero;stroke:none"
             d="m 0,0 h -12.506 v -3.144 h 4.291 v -12.16 h 3.945 v 12.16 H 0 Z" /></g><g
           transform="translate(160.668,15.9805)"
           id="g56"><path
             id="path58"
             style="fill:#01579b;fill-opacity:1;fill-rule:nonzero;stroke:none"
             d="m 0,0 c -0.604,0.656 -1.312,1.135 -2.123,1.434 -0.81,0.296 -1.804,0.569 -2.983,0.813 -0.948,0.255 -1.625,0.474 -2.032,0.659 -0.405,0.186 -0.607,0.456 -0.607,0.81 0,0.372 0.139,0.668 0.412,0.888 0.277,0.218 0.689,0.328 1.24,0.328 0.78,0 1.565,-0.133 2.353,-0.401 0.787,-0.267 1.495,-0.663 2.122,-1.181 l 2.157,2.737 c -0.81,0.655 -1.744,1.151 -2.799,1.487 -1.056,0.334 -2.196,0.502 -3.42,0.502 -1.255,0 -2.343,-0.221 -3.269,-0.667 -0.927,-0.444 -1.629,-1.038 -2.111,-1.782 -0.482,-0.744 -0.723,-1.553 -0.723,-2.427 0,-1.166 0.303,-2.082 0.907,-2.748 0.604,-0.668 1.311,-1.142 2.123,-1.427 0.809,-0.285 1.818,-0.546 3.027,-0.792 0.918,-0.202 1.584,-0.397 1.997,-0.587 0.413,-0.192 0.62,-0.488 0.62,-0.886 0,-0.4 -0.195,-0.729 -0.585,-0.986 -0.39,-0.259 -0.922,-0.387 -1.596,-0.387 -0.979,0 -1.889,0.186 -2.73,0.562 -0.842,0.375 -1.559,0.862 -2.157,1.456 l -2.09,-2.895 c 1.7,-1.512 3.963,-2.268 6.794,-2.268 2.02,0 3.588,0.463 4.703,1.389 1.117,0.925 1.677,2.17 1.677,3.729 C 0.907,-1.539 0.604,-0.659 0,0" /></g><g
           transform="translate(82.6719,8.5)"
           id="g60"><path
             id="path62"
             style="fill:#01579b;fill-opacity:1;fill-rule:nonzero;stroke:none"
             d="M 0,0 H 11.221 V 3.142 H 3.947 v 3.19 H 11.06 V 9.477 H 3.947 v 2.683 h 7.274 v 3.144 H 0 Z" /></g><g
           transform="translate(106.7412,13.9023)"
           id="g64"><path
             id="path66"
             style="fill:#01579b;fill-opacity:1;fill-rule:nonzero;stroke:none"
             d="M 0,0 C -0.338,-0.688 -0.826,-1.236 -1.469,-1.646 -2.111,-2.056 -2.87,-2.261 -3.74,-2.261 h -2.481 v 9.019 h 2.503 c 1.346,0 2.387,-0.417 3.12,-1.252 C 0.138,4.67 0.505,3.588 0.505,2.262 0.505,1.442 0.336,0.688 0,0 M 3.487,6.322 C 2.782,7.47 1.805,8.353 0.551,8.974 -0.705,9.592 -2.135,9.901 -3.74,9.901 h -6.426 V -5.402 h 6.448 c 1.591,0 3.013,0.308 4.269,0.927 1.254,0.621 2.231,1.508 2.936,2.662 0.704,1.155 1.056,2.513 1.056,4.073 0,1.561 -0.352,2.916 -1.056,4.062" /></g><path
           id="path68"
           style="fill:#01579b;fill-opacity:1;fill-rule:nonzero;stroke:none"
           d="m 113.646,8.5 h 3.946 v 15.304 h -3.946 z" /></g></g><g
       id="g70"><g
         id="g72"><g
           id="g78"><g
             id="g80"><path
               id="path88"
               style="fill:url(#linearGradient86);stroke:none"
               d="M 8.504,42.52 V 8.504 h 24.931 c 2.508,0 4.781,1.017 6.421,2.666 v 0 c 1.647,1.649 2.665,3.918 2.665,6.428 v 0 c 0,3.394 -1.865,6.357 -4.625,7.918 v 0 c 2.76,1.56 4.625,4.517 4.625,7.92 v 0 c 0,2.505 -1.018,4.778 -2.665,6.42 v 0 c -1.64,1.646 -3.913,2.664 -6.421,2.664 v 0 z" /></g></g></g></g><g
       id="g90"><g
         id="g92"><g
           id="g98"><g
             id="g100"><path
               id="path110"
               style="fill:url(#linearGradient108);stroke:none"
               d="m 13.199,25.512 c 0,-6.799 5.515,-12.313 12.313,-12.313 v 0 c 3.401,0 6.478,1.378 8.711,3.605 v 0 l -2.422,2.415 -2.413,2.421 c -0.994,-0.993 -2.366,-1.611 -3.876,-1.611 v 0 c -3.024,0 -5.482,2.458 -5.482,5.483 v 0 c 0,3.025 2.458,5.484 5.482,5.484 v 0 c 1.51,0 2.882,-0.619 3.876,-1.61 v 0 l 4.835,4.835 c -2.233,2.226 -5.31,3.605 -8.711,3.605 v 0 c -6.798,0 -12.313,-5.513 -12.313,-12.314" /></g></g></g></g><g
       id="g112"><g
         id="g114"><g
           id="g120"><g
             id="g122"><path
               id="path132"
               style="fill:url(#linearGradient130);stroke:none"
               d="m 16.611,25.516 c 0,-4.917 3.986,-8.903 8.901,-8.903 v 0 c 2.459,0 4.68,0.999 6.289,2.607 v 0 l -2.413,2.422 c -0.994,-0.992 -2.366,-1.61 -3.876,-1.61 v 0 c -3.024,0 -5.482,2.458 -5.482,5.484 v 0 c 0,3.025 2.458,5.484 5.482,5.484 v 0 c 1.51,0 2.882,-0.619 3.876,-1.611 v 0 l 2.413,2.416 c -1.609,1.608 -3.83,2.606 -6.289,2.606 v 0 c -4.915,0 -8.901,-3.979 -8.901,-8.895" /></g></g></g></g></g></svg>